<svg width="70" height="80" viewBox="0 0 70 80" fill="none" xmlns="http://www.w3.org/2000/svg">
<g clip-path="url(#clip0)">
<path d="M9.30646 4C9.30646 1.79086 11.0973 0 13.3065 0H49.3871L70 20.5714V76C70 78.2091 68.2091 80 66 80H13.3065C11.0973 80 9.30646 78.2091 9.30646 76V4Z" fill="#F3F4F7"/>
<rect y="38" width="60" height="29" rx="2" fill="#EF5164"/>
<path d="M15.7778 59.162C14.8058 59.162 13.8938 59.03 13.0418 58.766C12.1898 58.502 11.4698 58.13 10.8818 57.65L11.6558 55.958C12.2678 56.426 12.9098 56.768 13.5818 56.984C14.2658 57.2 15.0038 57.308 15.7958 57.308C16.6718 57.308 17.3438 57.158 17.8118 56.858C18.2918 56.546 18.5318 56.114 18.5318 55.562C18.5318 55.082 18.3098 54.716 17.8658 54.464C17.4338 54.212 16.7078 53.972 15.6878 53.744C14.6318 53.516 13.7738 53.252 13.1138 52.952C12.4538 52.652 11.9558 52.268 11.6198 51.8C11.2838 51.332 11.1158 50.738 11.1158 50.018C11.1158 49.274 11.3198 48.608 11.7278 48.02C12.1358 47.432 12.7118 46.976 13.4558 46.652C14.1998 46.316 15.0578 46.148 16.0298 46.148C16.9178 46.148 17.7638 46.286 18.5678 46.562C19.3718 46.826 20.0318 47.192 20.5478 47.66L19.7738 49.352C18.6458 48.452 17.3978 48.002 16.0298 48.002C15.2138 48.002 14.5658 48.17 14.0858 48.506C13.6178 48.83 13.3838 49.286 13.3838 49.874C13.3838 50.366 13.5938 50.744 14.0138 51.008C14.4338 51.272 15.1478 51.518 16.1558 51.746C17.2238 51.986 18.0878 52.256 18.7478 52.556C19.4198 52.844 19.9298 53.216 20.2778 53.672C20.6378 54.128 20.8178 54.704 20.8178 55.4C20.8178 56.156 20.6138 56.822 20.2058 57.398C19.8098 57.962 19.2278 58.4 18.4598 58.712C17.7038 59.012 16.8098 59.162 15.7778 59.162ZM35.2898 46.31L29.6378 59H27.7478L22.0958 46.31H24.4898L28.7018 56.12L32.9318 46.31H35.2898ZM47.643 52.142V58.226C47.067 58.514 46.365 58.742 45.537 58.91C44.721 59.078 43.887 59.162 43.035 59.162C41.727 59.162 40.593 58.904 39.633 58.388C38.673 57.86 37.935 57.11 37.419 56.138C36.915 55.154 36.663 53.99 36.663 52.646C36.663 51.314 36.915 50.162 37.419 49.19C37.935 48.206 38.661 47.456 39.597 46.94C40.545 46.412 41.655 46.148 42.927 46.148C43.815 46.148 44.649 46.28 45.429 46.544C46.209 46.796 46.857 47.162 47.373 47.642L46.599 49.316C46.011 48.86 45.429 48.536 44.853 48.344C44.289 48.14 43.665 48.038 42.981 48.038C41.673 48.038 40.683 48.428 40.011 49.208C39.351 49.976 39.021 51.122 39.021 52.646C39.021 55.766 40.389 57.326 43.125 57.326C43.941 57.326 44.757 57.212 45.573 56.984V53.798H42.837V52.142H47.643Z" fill="white"/>
<path d="M49.3871 14.8571V0L70 20.5714H55.1129C51.6774 20.5714 49.3871 18.2857 49.3871 14.8571Z" fill="#D7D9E0"/>
</g>
<defs>
<clipPath id="clip0">
<rect width="70" height="80" fill="white"/>
</clipPath>
</defs>
</svg>
